<?xml version="1.0" standalone="no"?>
<!DOCTYPE svg PUBLIC "-//W3C//DTD SVG 20010904//EN"
 "http://www.w3.org/TR/2001/REC-SVG-20010904/DTD/svg10.dtd">
<svg version="1.0" xmlns="http://www.w3.org/2000/svg"
 width="1080.000000pt" height="1080.000000pt" viewBox="0 0 1080.000000 1080.000000"
 preserveAspectRatio="xMidYMid meet">

<g transform="translate(0.000000,1080.000000) scale(0.100000,-0.100000)"
fill="#000000" stroke="none">
<path d="M7317 8996 c-21 -14 -243 -209 -495 -433 -251 -224 -473 -421 -492
-438 l-35 -31 -375 -2 c-206 -1 -576 -5 -822 -8 l-447 -7 -546 457 c-516 430
-549 456 -586 456 -42 0 -78 -26 -80 -57 0 -10 0 -112 1 -228 1 -115 -2 -461
-6 -768 l-7 -558 -51 -33 c-197 -126 -355 -342 -418 -572 -32 -118 -32 -346 0
-464 65 -240 214 -443 425 -580 l65 -41 6 -162 c3 -89 8 -236 11 -326 3 -100
10 -173 18 -189 23 -50 64 -63 222 -73 80 -5 504 -38 941 -74 438 -36 839 -65
892 -65 53 0 508 34 1011 75 1001 81 938 72 967 142 11 25 14 107 14 367 l0
334 69 51 c386 286 505 792 286 1208 -57 109 -117 185 -216 276 l-81 74 -15
774 c-7 426 -16 794 -19 818 -8 61 -41 92 -96 90 -24 -1 -56 1 -73 5 -23 6
-38 2 -68 -18z m81 -813 c7 -351 12 -666 12 -699 l0 -62 -82 29 c-369 127
-769 40 -1046 -225 -91 -87 -184 -217 -221 -308 l-23 -58 -574 0 -574 0 -29
64 c-137 303 -421 515 -762 571 -147 24 -272 17 -427 -21 -35 -9 -64 -14 -66
-13 -1 2 0 286 3 631 l6 626 485 -405 484 -405 826 7 c730 7 899 9 947 14 7 0
238 201 514 446 275 245 504 445 508 445 4 0 13 -287 19 -637z m-3223 -878
c230 -67 413 -216 514 -419 57 -113 81 -215 81 -346 0 -363 -247 -673 -615
-772 -109 -29 -318 -31 -420 -4 -256 68 -464 237 -565 460 -50 109 -64 179
-64 316 0 137 14 207 64 316 85 188 264 354 463 429 165 62 372 69 542 20z
m3050 0 c230 -67 413 -216 514 -419 57 -113 81 -215 81 -346 0 -363 -247 -673
-615 -772 -109 -29 -318 -31 -419 -4 -309 82 -532 296 -612 587 -25 89 -25
289 0 378 69 252 263 463 509 556 165 62 372 69 542 20z m-1191 -1070 c18 -49
41 -106 51 -125 72 -140 235 -312 371 -391 254 -149 546 -185 826 -104 l78 23
0 -259 c0 -199 -3 -261 -12 -264 -7 -2 -269 -25 -583 -50 -313 -25 -705 -57
-870 -71 -165 -14 -327 -25 -360 -25 -71 1 -1885 148 -1891 154 -5 4 -21 487
-16 491 1 2 37 -5 80 -15 373 -90 785 51 1024 350 72 89 145 227 173 324 l16
57 541 -2 540 -3 32 -90z"/>
<path d="M5430 6140 c-95 -8 -116 -14 -130 -41 -20 -36 -10 -61 40 -110 32
-31 62 -73 80 -113 38 -85 60 -106 111 -106 22 0 49 5 60 11 11 5 39 49 62 96
29 60 52 92 74 107 64 41 70 111 13 137 -41 20 -183 28 -310 19z m288 -55 c21
-8 13 -42 -15 -61 -39 -25 -50 -39 -89 -121 -56 -118 -96 -121 -148 -13 -42
87 -71 127 -96 135 -20 6 -37 42 -25 53 15 15 332 21 373 7z"/>
<path d="M6646 4568 c-11 -41 -7 -998 4 -1019 10 -17 22 -19 148 -18 75 0 146
4 156 8 17 6 14 11 -24 32 -24 13 -53 40 -64 59 -20 34 -21 54 -26 495 l-5
460 -91 3 c-88 3 -92 2 -98 -20z"/>
<path d="M9166 4575 c-3 -9 -6 -91 -6 -181 0 -127 -3 -164 -13 -164 -7 0 -38
9 -70 20 -77 27 -178 27 -254 -2 -80 -30 -171 -121 -203 -203 -35 -88 -34
-217 1 -302 30 -71 56 -105 119 -155 103 -82 269 -93 378 -26 l33 20 28 -26
c24 -23 36 -26 93 -26 43 0 69 5 77 14 8 9 10 156 9 527 l-3 514 -91 3 c-77 2
-93 0 -98 -13z m-96 -507 c61 -32 85 -81 85 -173 0 -89 -22 -137 -80 -170 -68
-41 -169 -32 -224 18 -76 70 -79 233 -5 299 60 53 150 63 224 26z"/>
<path d="M1754 4570 c-149 -21 -270 -101 -356 -235 -111 -171 -110 -410 2
-585 42 -65 133 -148 203 -183 31 -15 88 -35 129 -43 139 -30 292 17 418 126
78 68 83 83 78 242 -6 198 -23 219 -183 234 -134 13 -170 8 -210 -32 -45 -45
-68 -101 -60 -150 10 -67 65 -126 65 -70 0 44 40 78 97 83 46 5 55 2 77 -21
23 -22 26 -31 20 -68 -8 -54 -32 -80 -97 -108 -145 -63 -306 1 -375 148 -23
48 -27 71 -27 142 0 71 4 93 25 135 52 104 159 175 264 175 49 0 134 -27 186
-59 71 -43 168 -21 219 50 27 37 56 108 47 116 -1 2 -19 -4 -39 -12 -53 -22
-71 -19 -124 19 -116 82 -233 113 -359 96z"/>
<path d="M5315 4398 c-2 -7 -6 -42 -7 -78 -3 -62 -4 -66 -35 -81 -57 -28 -63
-38 -63 -95 0 -58 6 -65 60 -74 l35 -5 5 -205 c5 -189 7 -208 27 -240 51 -82
107 -110 220 -110 43 1 98 5 123 10 56 11 106 -10 135 -57 28 -46 45 -42 45
10 0 95 -60 198 -126 216 -19 5 -58 7 -87 4 -71 -7 -112 14 -127 65 -7 21 -10
94 -8 172 l3 135 88 5 c102 6 107 10 107 92 0 87 -1 88 -89 88 -100 0 -110 7
-113 90 l-3 65 -93 3 c-68 2 -94 -1 -97 -10z"/>
<path d="M2590 4261 c-96 -31 -175 -103 -223 -200 -30 -61 -32 -74 -32 -166 0
-92 3 -106 32 -167 36 -78 101 -145 170 -180 41 -20 63 -23 153 -23 106 0 118
3 183 48 16 10 22 8 40 -14 34 -41 64 -52 163 -57 97 -5 126 6 73 28 -16 7
-34 21 -39 31 -6 10 -10 146 -10 323 0 167 -3 311 -6 320 -5 13 -22 16 -88 16
-44 0 -87 -4 -95 -9 -10 -6 -32 0 -68 21 -47 26 -66 31 -141 34 -48 2 -98 0
-112 -5z m215 -191 c73 -35 110 -137 86 -237 -22 -88 -81 -133 -174 -133 -67
0 -102 15 -145 64 -53 60 -64 154 -27 226 17 33 64 76 95 89 43 17 120 13 165
-9z"/>
<path d="M4663 4256 c-104 -34 -185 -106 -232 -205 -23 -49 -26 -68 -26 -161
0 -101 1 -108 34 -168 39 -71 108 -138 178 -173 41 -21 63 -24 153 -24 91 0
112 3 155 25 68 33 145 112 181 185 26 54 29 70 29 160 0 90 -3 106 -29 160
-38 76 -105 143 -180 180 -70 34 -193 44 -263 21z m164 -177 c70 -26 113 -100
113 -194 0 -179 -194 -258 -303 -123 -54 67 -49 199 11 270 44 52 115 71 179
47z"/>
<path d="M6060 4261 c-106 -35 -202 -120 -248 -219 -22 -48 -26 -72 -26 -147
-1 -82 2 -96 31 -155 39 -80 109 -152 183 -188 49 -24 66 -27 160 -27 98 0
109 2 160 30 76 42 131 100 171 181 31 63 34 76 34 159 0 81 -3 97 -32 155
-39 80 -109 152 -182 187 -44 22 -71 28 -140 30 -47 1 -97 -1 -111 -6z m177
-196 c59 -35 87 -90 88 -175 0 -120 -66 -196 -171 -194 -68 0 -116 32 -149 98
-29 58 -32 109 -8 168 44 116 144 158 240 103z"/>
<path d="M7210 4261 c-97 -32 -172 -97 -222 -193 -32 -60 -33 -68 -33 -173 0
-98 3 -116 26 -165 57 -119 161 -198 273 -207 98 -8 168 4 218 37 l43 30 25
-30 c23 -28 30 -30 91 -30 37 0 70 5 77 12 9 9 12 99 12 344 0 183 -3 339 -6
348 -5 13 -22 16 -84 16 -71 0 -79 -2 -94 -24 l-16 -25 -60 31 c-51 27 -74 32
-143 35 -45 1 -93 -1 -107 -6z m227 -197 c43 -32 70 -78 76 -131 17 -139 -54
-233 -176 -233 -98 0 -167 54 -188 150 -21 93 28 195 111 229 41 17 146 8 177
-15z"/>
<path d="M9662 4255 c-86 -27 -145 -84 -168 -163 -40 -138 39 -241 213 -277
79 -17 113 -37 113 -70 0 -53 -103 -75 -168 -35 -18 11 -40 20 -50 20 -24 -1
-115 -52 -120 -68 -2 -8 19 -35 46 -61 140 -132 394 -98 479 63 39 72 11 194
-55 243 -38 28 -122 60 -179 69 -49 7 -93 37 -93 63 0 50 89 73 132 34 28 -24
80 -43 121 -43 42 0 113 36 137 70 26 37 27 54 1 40 -11 -5 -36 -10 -56 -10
-30 0 -46 9 -90 51 -85 80 -169 104 -263 74z"/>
<path d="M3235 4218 c-3 -18 -4 -181 -3 -363 l3 -330 113 -3 c61 -1 112 1 112
5 0 4 -7 17 -15 27 -12 16 -15 57 -15 200 0 197 8 247 48 289 30 32 93 37 131
11 45 -32 51 -67 51 -298 0 -118 3 -217 8 -219 4 -3 50 -7 102 -9 l94 -3 -3
211 c-3 231 4 281 46 313 31 25 94 28 128 5 47 -30 55 -76 55 -303 0 -208 0
-209 23 -215 30 -8 192 -8 200 1 4 3 1 13 -7 22 -11 13 -15 68 -18 256 -4 239
-4 240 -32 298 -43 89 -119 136 -221 137 -70 0 -117 -15 -170 -55 -25 -19 -48
-35 -51 -35 -3 0 -24 15 -45 34 -22 18 -60 39 -85 46 -59 17 -149 8 -204 -20
l-44 -22 -19 26 c-17 24 -24 26 -97 26 l-79 0 -6 -32z"/>
<path d="M7856 4234 c-3 -9 -6 -165 -6 -348 0 -245 3 -335 12 -344 12 -12 143
-17 172 -6 14 5 16 34 16 220 0 239 6 271 59 298 68 36 162 11 187 -49 11 -26
14 -86 14 -249 0 -186 2 -215 16 -220 33 -13 161 -6 174 8 8 11 11 81 8 263
-3 235 -4 250 -26 295 -51 102 -153 155 -281 146 -36 -3 -83 -14 -103 -24 -37
-17 -38 -17 -61 4 -20 19 -35 22 -99 22 -60 0 -77 -3 -82 -16z"/>
</g>
</svg>
